<?xml version="1.0" encoding="utf-8"?>
<!-- Generator: Adobe Illustrator 25.0.1, SVG Export Plug-In . SVG Version: 6.00 Build 0)  -->
<svg version="1.1" id="Layer_1" xmlns="http://www.w3.org/2000/svg" xmlns:xlink="http://www.w3.org/1999/xlink" x="0px" y="0px"
	 viewBox="0 0 50 50" style="enable-background:new 0 0 50 50;" xml:space="preserve">
<style type="text/css">
	.st0{fill:#FFFFFF;}
	.st1{fill:none;stroke:#FFFFFF;stroke-width:2;stroke-miterlimit:10;}
</style>
<g>
	<g>
		<path class="st0" d="M25,1.5C38,1.5,48.5,12,48.5,25S38,48.5,25,48.5S1.5,38,1.5,25S12,1.5,25,1.5 M25,0.5
			C11.5,0.5,0.5,11.5,0.5,25s11,24.5,24.5,24.5s24.5-11,24.5-24.5S38.5,0.5,25,0.5L25,0.5z"/>
	</g>
	<path class="st1" d="M35.8,26.6c0,6.5-5.3,11.8-11.8,11.8s-11.8-5.3-11.8-11.8S17.5,14.8,24,14.8"/>
	<polyline class="st1" points="23.4,9.8 28.5,14.9 23.4,19.9 	"/>
</g>
</svg>
